<svg width="210" height="223" viewBox="0 0 210 223" fill="none" xmlns="http://www.w3.org/2000/svg">
<g clip-path="url(#clip0_91_55)">
<mask id="mask0_91_55" style="mask-type:alpha" maskUnits="userSpaceOnUse" x="9" y="31" width="192" height="192">
<path d="M105 222.727C157.718 222.727 200.454 179.991 200.454 127.273C200.454 74.5548 157.718 31.8184 105 31.8184C52.2819 31.8184 9.54541 74.5548 9.54541 127.273C9.54541 179.991 52.2819 222.727 105 222.727Z" fill="white"/>
</mask>
<g mask="url(#mask0_91_55)">
<path d="M105 222.727C157.718 222.727 200.454 179.991 200.454 127.273C200.454 74.5548 157.718 31.8184 105 31.8184C52.2819 31.8184 9.54541 74.5548 9.54541 127.273C9.54541 179.991 52.2819 222.727 105 222.727Z" fill="#E6E6E6"/>
<path d="M200.454 31.8184H9.54541V222.727H200.454V31.8184Z" fill="#FFB742"/>
</g>
<mask id="mask1_91_55" style="mask-type:alpha" maskUnits="userSpaceOnUse" x="0" y="0" width="210" height="223">
<path d="M9.54545 127.273C9.54545 179.991 52.2819 222.727 105 222.727C157.718 222.727 200.455 179.991 200.455 127.273H210V0H0V127.273H9.54545Z" fill="white"/>
</mask>
<g mask="url(#mask1_91_55)">
<mask id="mask2_91_55" style="mask-type:alpha" maskUnits="userSpaceOnUse" x="25" y="28" width="160" height="195">
<path d="M124.091 143.668V158.295H127.273C158.904 158.295 184.545 183.937 184.545 215.568V222.727H25.4546V215.568C25.4546 183.937 51.0965 158.295 82.7273 158.295H85.9091V143.668C72.1976 137.154 62.3416 123.842 60.6973 108.087C56.0639 107.432 52.5 103.45 52.5 98.6362V87.4999C52.5 82.7701 55.94 78.8438 60.4546 78.0864V73.1817C60.4546 48.5799 80.3983 28.6362 105 28.6362C129.602 28.6362 149.545 48.5799 149.545 73.1817V78.0864C154.06 78.8438 157.5 82.7701 157.5 87.4999V98.6362C157.5 103.45 153.936 107.432 149.303 108.087C147.658 123.842 137.802 137.154 124.091 143.668Z" fill="white"/>
</mask>
<g mask="url(#mask2_91_55)">
<path d="M124.091 143.668V158.295H127.273C158.904 158.295 184.545 183.937 184.545 215.568V222.727H25.4546V215.568C25.4546 183.937 51.0965 158.295 82.7273 158.295H85.9091V143.668C72.1976 137.154 62.3416 123.842 60.6973 108.087C56.0639 107.432 52.5 103.45 52.5 98.6362V87.4999C52.5 82.7701 55.94 78.8438 60.4546 78.0864V73.1817C60.4546 48.5799 80.3983 28.6362 105 28.6362C129.602 28.6362 149.545 48.5799 149.545 73.1817V78.0864C154.06 78.8438 157.5 82.7701 157.5 87.4999V98.6362C157.5 103.45 153.936 107.432 149.303 108.087C147.658 123.842 137.802 137.154 124.091 143.668Z" fill="#D0C6AC"/>
<path d="M235.455 28.6362H25.4546V251.364H235.455V28.6362Z" fill="#FFE6CF"/>
<path fill-rule="evenodd" clip-rule="evenodd" d="M149.545 91.4771V109.773C149.545 134.374 129.602 154.318 105 154.318C80.3983 154.318 60.4546 134.374 60.4546 109.773V91.4771V103.409C60.4546 128.011 80.3983 147.954 105 147.954C129.602 147.954 149.545 128.011 149.545 103.409V91.4771Z" fill="black" fill-opacity="0.1"/>
</g>
<mask id="mask3_91_55" style="mask-type:alpha" maskUnits="userSpaceOnUse" x="25" y="145" width="160" height="78">
<path fill-rule="evenodd" clip-rule="evenodd" d="M85.9091 145.625C71.6556 147.219 60.6772 151.575 60.4579 162.786C39.8893 171.475 25.4546 191.835 25.4546 215.568V222.727H184.545V215.568C184.545 191.835 170.111 171.475 149.542 162.786C149.323 151.575 138.344 147.219 124.091 145.625V160.682C124.091 171.225 115.544 179.773 105 179.773C94.4564 179.773 85.9091 171.225 85.9091 160.682V145.625Z" fill="white"/>
</mask>
<g mask="url(#mask3_91_55)">
<path fill-rule="evenodd" clip-rule="evenodd" d="M85.9091 145.625C71.6556 147.219 60.6772 151.575 60.4579 162.786C39.8893 171.475 25.4546 191.835 25.4546 215.568V222.727H184.545V215.568C184.545 191.835 170.111 171.475 149.542 162.786C149.323 151.575 138.344 147.219 124.091 145.625V160.682C124.091 171.225 115.544 179.773 105 179.773C94.4564 179.773 85.9091 171.225 85.9091 160.682V145.625Z" fill="#B7C1DB"/>
<path d="M210 135.227H0V222.727H210V135.227Z" fill="#273C4D"/>
<path fill-rule="evenodd" clip-rule="evenodd" d="M81.1365 184.338V222.727H75.5684V181.483C77.3213 182.525 79.1851 183.48 81.1365 184.338ZM134.432 181.483V213.579C134.432 215.117 133.186 216.363 131.648 216.363C130.11 216.363 128.864 215.117 128.864 213.579V184.338C130.815 183.48 132.679 182.525 134.432 181.483Z" fill="#F4F4F4"/>
<path fill-rule="evenodd" clip-rule="evenodd" d="M72.3549 145.349C60.3827 147.613 52.1025 152.125 52.1025 160.926C52.1025 176.607 78.3825 189.318 105 189.318C131.618 189.318 157.898 176.607 157.898 160.926C157.898 152.125 149.618 147.613 137.646 145.349C144.872 148.013 149.546 152.493 149.546 159.947C149.546 176.168 127.415 189.318 105 189.318C82.5853 189.318 60.4548 176.168 60.4548 159.947C60.4548 152.493 65.1282 148.013 72.3549 145.349Z" fill="black" fill-opacity="0.16"/>
</g>
<mask id="mask4_91_55" style="mask-type:alpha" maskUnits="userSpaceOnUse" x="89" y="116" width="32" height="17">
<path fill-rule="evenodd" clip-rule="evenodd" d="M89.9798 118.625C90.8213 126.175 97.2249 132.046 105 132.046C112.798 132.046 119.218 126.139 120.027 118.555C120.092 117.945 119.411 116.932 118.556 116.932C106.709 116.932 97.6321 116.932 91.546 116.932C90.6868 116.932 89.8956 117.87 89.9798 118.625Z" fill="white"/>
</mask>
<g mask="url(#mask4_91_55)">
<path fill-rule="evenodd" clip-rule="evenodd" d="M89.9798 118.625C90.8213 126.175 97.2249 132.046 105 132.046C112.798 132.046 119.218 126.139 120.027 118.555C120.092 117.945 119.411 116.932 118.556 116.932C106.709 116.932 97.6321 116.932 91.546 116.932C90.6868 116.932 89.8956 117.87 89.9798 118.625Z" fill="black" fill-opacity="0.7"/>
<path d="M113.75 108.182H97.0451C94.8486 108.182 93.0679 109.963 93.0679 112.159V116.932C93.0679 119.129 94.8486 120.909 97.0451 120.909H113.75C115.946 120.909 117.727 119.129 117.727 116.932V112.159C117.727 109.963 115.946 108.182 113.75 108.182Z" fill="white"/>
<path d="M101.022 143.182C105.855 143.182 109.772 139.265 109.772 134.432C109.772 129.6 105.855 125.682 101.022 125.682C96.19 125.682 92.2725 129.6 92.2725 134.432C92.2725 139.265 96.19 143.182 101.022 143.182Z" fill="#FF4F6D"/>
<path d="M108.977 143.182C113.81 143.182 117.727 139.265 117.727 134.432C117.727 129.6 113.81 125.682 108.977 125.682C104.145 125.682 100.227 129.6 100.227 134.432C100.227 139.265 104.145 143.182 108.977 143.182Z" fill="#FF4F6D"/>
</g>
<path fill-rule="evenodd" clip-rule="evenodd" d="M95.4546 103.409C95.4546 106.924 99.7282 109.773 105 109.773C110.272 109.773 114.546 106.924 114.546 103.409" fill="black" fill-opacity="0.16"/>
<path fill-rule="evenodd" clip-rule="evenodd" d="M73.309 89.4469C74.7779 86.4251 78.0852 84.3184 81.9297 84.3184C85.7607 84.3184 89.0582 86.4103 90.5348 89.4149C90.9734 90.3075 90.3492 91.038 89.7196 90.4967C87.7699 88.8205 85.0011 87.7736 81.9297 87.7736C78.9544 87.7736 76.263 88.756 74.3251 90.3413C73.6166 90.9209 72.8794 90.3307 73.309 89.4469Z" fill="black" fill-opacity="0.6"/>
<path fill-rule="evenodd" clip-rule="evenodd" d="M119.445 89.4469C120.914 86.4251 124.221 84.3184 128.066 84.3184C131.897 84.3184 135.194 86.4103 136.671 89.4149C137.11 90.3075 136.485 91.038 135.856 90.4967C133.906 88.8205 131.137 87.7736 128.066 87.7736C125.091 87.7736 122.399 88.756 120.461 90.3413C119.753 90.9209 119.016 90.3307 119.445 89.4469Z" fill="black" fill-opacity="0.6"/>
<path d="M72.8873 78.8764C76.0015 74.4945 84.5389 72.0373 91.893 73.8432C92.7462 74.0528 93.6078 73.5309 93.8174 72.6777C94.0269 71.8244 93.5051 70.9628 92.6518 70.7532C84.1113 68.6559 74.2252 71.5013 70.2938 77.0332C69.7848 77.7494 69.9528 78.7426 70.669 79.2516C71.3851 79.7606 72.3784 79.5926 72.8873 78.8764Z" fill="black" fill-opacity="0.6"/>
<path d="M137.113 78.8764C133.999 74.4945 125.461 72.0373 118.107 73.8433C117.254 74.0528 116.392 73.5309 116.183 72.6777C115.973 71.8244 116.495 70.9628 117.348 70.7532C125.889 68.6559 135.775 71.5013 139.706 77.0332C140.215 77.7494 140.047 78.7426 139.331 79.2516C138.615 79.7606 137.622 79.5926 137.113 78.8764Z" fill="black" fill-opacity="0.6"/>
<mask id="mask5_91_55" style="mask-type:alpha" maskUnits="userSpaceOnUse" x="0" y="0" width="210" height="223">
<path d="M210 0H0V222.727H210V0Z" fill="white"/>
</mask>
<g mask="url(#mask5_91_55)">
<mask id="mask6_91_55" style="mask-type:alpha" maskUnits="userSpaceOnUse" x="58" y="13" width="94" height="66">
<path fill-rule="evenodd" clip-rule="evenodd" d="M142.506 31.7551C140.311 29.5119 137.762 27.6079 135.283 25.6986C134.735 25.2777 134.18 24.867 133.645 24.4301C133.523 24.3308 132.278 23.4389 132.129 23.1106C131.77 22.3209 131.978 22.9358 132.028 21.9934C132.09 20.8018 134.52 17.436 132.707 16.6642C131.909 16.3247 130.486 17.2281 129.721 17.5265C128.224 18.1105 126.709 18.6085 125.162 19.0379C125.904 17.5609 127.317 14.6044 124.661 15.3957C122.591 16.0122 120.663 17.5972 118.583 18.3429C119.271 17.2151 122.023 13.7202 119.536 13.5248C118.763 13.464 116.511 14.9153 115.678 15.2249C113.183 16.1523 110.635 16.7517 108.015 17.2239C99.1075 18.8292 88.6912 18.3715 80.4499 22.4268C74.0964 25.5532 67.8226 30.4041 64.1523 36.5812C60.6147 42.5352 59.2916 49.0513 58.5512 55.874C58.0079 60.8811 57.9637 66.0568 58.2178 71.082C58.3008 72.7285 58.486 80.3179 60.8779 78.0195C62.0696 76.8743 62.0608 72.2499 62.3609 70.6846C62.9582 67.5703 63.5332 64.4421 64.529 61.4274C66.284 56.1147 68.3542 50.4556 72.7261 46.7966C75.5318 44.4488 77.5019 41.2755 80.1868 38.9069C81.3928 37.8431 80.4725 37.9538 82.4116 38.0934C83.7142 38.1871 85.0227 38.2228 86.328 38.257C89.3475 38.3355 92.3719 38.3155 95.3922 38.3261C101.475 38.348 107.529 38.434 113.606 38.1156C116.306 37.9741 119.014 37.8975 121.708 37.6477C123.212 37.5081 125.882 36.5439 127.121 37.2807C128.254 37.9549 129.431 40.1562 130.245 41.0577C132.168 43.1883 134.46 44.8155 136.709 46.5625C141.397 50.2053 143.765 54.7805 145.189 60.4733C146.607 66.1449 146.209 71.4067 147.965 76.9881C148.274 77.9695 149.091 79.661 150.099 78.1448C150.286 77.8632 150.237 76.3154 150.237 75.4247C150.237 71.8294 151.148 69.1319 151.136 65.5132C151.092 54.5105 150.736 40.1634 142.506 31.7551Z" fill="white"/>
</mask>
<g mask="url(#mask6_91_55)">
<path fill-rule="evenodd" clip-rule="evenodd" d="M142.506 31.7551C140.311 29.5119 137.762 27.6079 135.283 25.6986C134.736 25.2777 134.18 24.867 133.645 24.4301C133.523 24.3308 132.278 23.4389 132.129 23.1106C131.77 22.3209 131.978 22.9358 132.028 21.9934C132.09 20.8018 134.52 17.436 132.707 16.6642C131.909 16.3247 130.486 17.2281 129.721 17.5265C128.224 18.1105 126.71 18.6085 125.162 19.0379C125.904 17.5609 127.317 14.6044 124.661 15.3957C122.591 16.0122 120.663 17.5972 118.583 18.3429C119.271 17.2151 122.023 13.7202 119.537 13.5248C118.763 13.464 116.511 14.9153 115.678 15.2249C113.183 16.1523 110.635 16.7517 108.015 17.2239C99.1075 18.8292 88.6912 18.3715 80.4499 22.4268C74.0964 25.5532 67.8226 30.4041 64.1523 36.5812C60.6147 42.5352 59.2916 49.0513 58.5512 55.874C58.0079 60.8811 57.9637 66.0568 58.2178 71.082C58.3008 72.7285 58.486 80.318 60.8779 78.0195C62.0696 76.8743 62.0608 72.2499 62.3609 70.6846C62.9582 67.5703 63.5332 64.4422 64.5291 61.4274C66.284 56.1147 68.3542 50.4556 72.7261 46.7966C75.5318 44.4488 77.502 41.2755 80.1868 38.9069C81.3928 37.8431 80.4725 37.9538 82.4116 38.0934C83.7142 38.1871 85.0227 38.2228 86.328 38.257C89.3476 38.3355 92.3719 38.3155 95.3922 38.3261C101.475 38.348 107.529 38.434 113.606 38.1156C116.307 37.9741 119.014 37.8975 121.708 37.6477C123.212 37.5081 125.882 36.5439 127.121 37.2807C128.254 37.9549 129.431 40.1562 130.245 41.0577C132.168 43.1883 134.46 44.8155 136.709 46.5626C141.397 50.2053 143.765 54.7806 145.189 60.4733C146.607 66.1449 146.209 71.4067 147.965 76.9881C148.274 77.9695 149.091 79.661 150.099 78.1448C150.286 77.8633 150.237 76.3154 150.237 75.4247C150.237 71.8295 151.148 69.1319 151.136 65.5132C151.092 54.5105 150.736 40.1634 142.506 31.7551Z" fill="#1F3140"/>
<path d="M209.205 0H-0.79541V222.727H209.205V0Z" fill="#2C1B18"/>
<g filter="url(#filter0_d_91_55)">
<path d="M80.341 105.796H78.1472C67.0686 105.796 60.4546 99.6993 60.4546 89.4889C60.4546 81.2377 61.8999 73.1821 79.1716 73.1821H81.5103C98.782 73.1821 100.227 81.2377 100.227 89.4889C100.227 99.089 92.0511 105.796 80.341 105.796ZM79.0566 77.9549C63.6364 77.9549 63.6364 83.3966 63.6364 90.2856C63.6364 95.9098 66.1152 102.614 77.9315 102.614H80.341C90.1767 102.614 97.0455 97.5445 97.0455 90.2856C97.0455 83.3966 97.0455 77.9549 81.6253 77.9549H79.0566Z" fill="#252C2F"/>
<path d="M129.659 105.796H127.465C116.386 105.796 109.772 99.6993 109.772 89.4889C109.772 81.2377 111.218 73.1821 128.489 73.1821H130.828C148.1 73.1821 149.545 81.2377 149.545 89.4889C149.545 99.089 141.369 105.796 129.659 105.796ZM128.374 77.9549C112.954 77.9549 112.954 83.3966 112.954 90.2856C112.954 95.9098 115.436 102.614 127.249 102.614H129.659C139.495 102.614 146.363 97.5445 146.363 90.2856C146.363 83.3966 146.363 77.9549 130.943 77.9549H128.374Z" fill="#252C2F"/>
<path d="M55.6456 77.7731C56.1956 77.236 62.2121 73.1821 79.1477 73.1821C93.3476 73.1821 96.3535 74.6558 100.904 76.8825L101.237 77.0469C101.553 77.1586 103.171 77.7081 105.063 77.7686C106.787 77.6946 108.261 77.2273 108.692 77.0776C113.885 74.552 118.969 73.1821 130.852 73.1821C147.788 73.1821 153.804 77.236 154.354 77.7731C155.654 77.7731 156.704 78.7992 156.704 80.0687V82.3642C156.704 83.6336 155.654 84.6597 154.354 84.6597C154.354 84.6597 148.864 84.6597 148.864 86.9552C148.864 89.2507 147.304 83.6336 147.304 82.3642V80.1284C144.437 79.0314 139.307 76.9893 130.852 76.9893C121.433 76.9893 116.742 78.6597 112.718 80.3183L112.763 80.4268L112.761 82.0067L110.997 86.2623L108.819 85.401C108.624 85.3241 108.204 85.1859 107.622 85.0423C105.999 84.642 104.331 84.5202 102.855 84.8231C102.314 84.9342 101.812 85.1009 101.351 85.3261L99.2492 86.3532L97.1462 82.2473L97.2396 80.4222L97.3038 80.2671C93.8334 78.65 90.6335 76.9893 79.1477 76.9893C70.6937 76.9893 65.563 79.0307 62.6962 80.1276V82.3642C62.6962 83.6336 60.346 89.2507 60.346 86.9552C60.346 84.6597 55.6456 84.6597 55.6456 84.6597C54.3483 84.6597 53.2954 83.6336 53.2954 82.3642V80.0687C53.2954 78.7992 54.3483 77.7731 55.6456 77.7731Z" fill="#252C2F"/>
</g>
</g>
</g>
</g>
</g>
<defs>
<filter id="filter0_d_91_55" x="47.2803" y="70.1746" width="115.439" height="44.6441" filterUnits="userSpaceOnUse" color-interpolation-filters="sRGB">
<feFlood flood-opacity="0" result="BackgroundImageFix"/>
<feColorMatrix in="SourceAlpha" type="matrix" values="0 0 0 0 0 0 0 0 0 0 0 0 0 0 0 0 0 0 127 0" result="hardAlpha"/>
<feOffset dy="3.00758"/>
<feGaussianBlur stdDeviation="3.00758"/>
<feColorMatrix type="matrix" values="0 0 0 0 0 0 0 0 0 0 0 0 0 0 0 0 0 0 0.2 0"/>
<feBlend mode="normal" in2="BackgroundImageFix" result="effect1_dropShadow_91_55"/>
<feBlend mode="normal" in="SourceGraphic" in2="effect1_dropShadow_91_55" result="shape"/>
</filter>
<clipPath id="clip0_91_55">
<rect width="210" height="222.727" fill="white"/>
</clipPath>
</defs>
</svg>
