<svg width="48" height="49" viewBox="0 0 48 49" fill="none" xmlns="http://www.w3.org/2000/svg">
<g clip-path="url(#clip0_91_183)">
<path d="M0 42.1023C0 45.5208 2.77106 48.2915 6.18919 48.2915H41.8106C45.2293 48.2915 48 45.5204 48 42.1023V6.48088C48 3.06219 45.2289 0.291504 41.8108 0.291504H6.18937C2.77069 0.291504 0 3.06257 0 6.48069V42.1021V42.1023Z" fill="#563D7C"/>
<path d="M19.9047 21.5236V14.7262H25.888C26.458 14.7262 27.0074 14.7736 27.5365 14.8687C28.0657 14.9636 28.5338 15.1331 28.9409 15.3774C29.3478 15.6217 29.6735 15.9609 29.9178 16.3949C30.1619 16.8292 30.2842 17.3855 30.2842 18.0637C30.2842 19.2849 29.9178 20.1669 29.185 20.7095C28.4525 21.2523 27.5163 21.5236 26.3765 21.5236H19.9047ZM13.5142 9.76025V38.8228H27.5977C28.9002 38.8228 30.1688 38.66 31.4035 38.3343C32.6382 38.0086 33.7372 37.5067 34.7005 36.8283C35.6637 36.1499 36.4304 35.2747 37.0002 34.2029C37.5702 33.131 37.855 31.8624 37.855 30.3971C37.855 28.5789 37.414 27.0254 36.5322 25.7366C35.6502 24.4475 34.3137 23.5453 32.5227 23.0296C33.8253 22.4056 34.8091 21.605 35.474 20.6281C36.1387 19.6513 36.4711 18.4303 36.4711 16.9648C36.4711 15.608 36.2472 14.4684 35.7995 13.5457C35.3517 12.6232 34.7208 11.8837 33.9067 11.3274C33.0927 10.7711 32.1158 10.3708 30.976 10.1266C29.8364 9.88232 28.5745 9.76025 27.1906 9.76025H13.5142ZM19.9047 33.8568V25.8789H26.8649C28.2488 25.8789 29.3615 26.1976 30.2028 26.8355C31.0439 27.4732 31.4647 28.5382 31.4647 30.0307C31.4647 30.7906 31.3357 31.4146 31.0778 31.9031C30.82 32.3915 30.4741 32.7783 30.0398 33.0631C29.6058 33.3481 29.1037 33.5516 28.5338 33.6738C27.9638 33.7957 27.367 33.8568 26.7428 33.8568H19.9047Z" fill="white"/>
</g>
<defs>
<clipPath id="clip0_91_183">
<rect width="48" height="48" fill="white" transform="translate(0 0.291504)"/>
</clipPath>
</defs>
</svg>
