<svg width="48" height="49" viewBox="0 0 48 49" fill="none" xmlns="http://www.w3.org/2000/svg">
<path d="M37 19.3117C35.5001 18.7951 34.1762 17.8662 33.18 16.6317C32.0821 15.2561 30.6841 14.1499 29.093 13.3977C27.5019 12.6455 25.7598 12.2672 24 12.2917C21.6327 12.124 19.2892 12.8542 17.436 14.3367C15.5829 15.8192 14.3561 17.9453 14 20.2917C14.7013 19.1182 15.7569 18.1974 17.0148 17.6619C18.2727 17.1264 19.668 17.0038 21 17.3117C22.4974 17.8433 23.8192 18.7775 24.82 20.0117C25.9239 21.3762 27.3246 22.471 28.9153 23.2126C30.5061 23.9543 32.2451 24.3233 34 24.2917C36.3673 24.4593 38.7108 23.7292 40.564 22.2467C42.4171 20.7641 43.6439 18.638 44 16.2917C43.3114 17.4792 42.2592 18.4139 40.9987 18.9577C39.7383 19.5015 38.3364 19.6256 37 19.3117ZM11 29.2717C12.4999 29.7883 13.8238 30.7171 14.82 31.9517C15.9179 33.3272 17.3159 34.4334 18.907 35.1856C20.4981 35.9378 22.2402 36.3162 24 36.2917C26.3673 36.4593 28.7108 35.7292 30.564 34.2467C32.4171 32.7641 33.6439 30.638 34 28.2917C33.2987 29.4652 32.2431 30.3859 30.9852 30.9214C29.7273 31.4569 28.332 31.5796 27 31.2717C25.5026 30.7401 24.1808 29.8058 23.18 28.5717C22.0731 27.2105 20.6719 26.1181 19.0818 25.3768C17.4917 24.6354 15.7542 24.2644 14 24.2917C11.6327 24.124 9.28917 24.8542 7.43601 26.3367C5.58286 27.8192 4.35608 29.9453 4 32.2917C4.68861 31.1041 5.74082 30.1695 7.00127 29.6257C8.26172 29.0819 9.66362 28.9578 11 29.2717Z" fill="#33A9DC"/>
</svg>
