<svg width="32" height="49" viewBox="0 0 32 49" fill="none" xmlns="http://www.w3.org/2000/svg">
<g clip-path="url(#clip0_91_200)">
<path d="M8 48.2915C12.416 48.2915 16 44.7075 16 40.2915V32.2915H8C3.584 32.2915 0 35.8755 0 40.2915C0 44.7075 3.584 48.2915 8 48.2915Z" fill="#0ACF83"/>
<path d="M0 24.2915C0 19.8755 3.584 16.2915 8 16.2915H16V32.2915H8C3.584 32.2915 0 28.7075 0 24.2915Z" fill="#A259FF"/>
<path d="M0 8.2915C0 3.8755 3.584 0.291504 8 0.291504H16V16.2915H8C3.584 16.2915 0 12.7075 0 8.2915Z" fill="#F24E1E"/>
<path d="M16 0.291504H24C28.416 0.291504 32 3.8755 32 8.2915C32 12.7075 28.416 16.2915 24 16.2915H16V0.291504Z" fill="#FF7262"/>
<path d="M32 24.2915C32 28.7075 28.416 32.2915 24 32.2915C19.584 32.2915 16 28.7075 16 24.2915C16 19.8755 19.584 16.2915 24 16.2915C28.416 16.2915 32 19.8755 32 24.2915Z" fill="#1ABCFE"/>
</g>
<defs>
<clipPath id="clip0_91_200">
<rect width="32" height="48" fill="white" transform="translate(0 0.291504)"/>
</clipPath>
</defs>
</svg>
