<svg width="48" height="49" viewBox="0 0 48 49" fill="none" xmlns="http://www.w3.org/2000/svg">
<g clip-path="url(#clip0_91_198)">
<path fill-rule="evenodd" clip-rule="evenodd" d="M24 0.291504C10.74 0.291504 0 11.0315 0 24.2915C0 34.9115 6.87 43.8815 16.41 47.0615C17.61 47.2715 18.06 46.5515 18.06 45.9215C18.06 45.3515 18.03 43.4615 18.03 41.4515C12 42.5615 10.44 39.9815 9.96 38.6315C9.69 37.9415 8.52 35.8115 7.5 35.2415C6.66 34.7915 5.46 33.6815 7.47 33.6515C9.36 33.6215 10.71 35.3915 11.16 36.1115C13.32 39.7415 16.77 38.7215 18.15 38.0915C18.36 36.5315 18.99 35.4815 19.68 34.8815C14.34 34.2815 8.76 32.2115 8.76 23.0315C8.76 20.4215 9.69 18.2615 11.22 16.5815C10.98 15.9815 10.14 13.5215 11.46 10.2215C11.46 10.2215 13.47 9.5915 18.06 12.6815C19.98 12.1415 22.02 11.8715 24.06 11.8715C26.1 11.8715 28.14 12.1415 30.06 12.6815C34.65 9.5615 36.66 10.2215 36.66 10.2215C37.98 13.5215 37.14 15.9815 36.9 16.5815C38.43 18.2615 39.36 20.3915 39.36 23.0315C39.36 32.2415 33.75 34.2815 28.41 34.8815C29.28 35.6315 30.03 37.0715 30.03 39.3215C30.03 42.5315 30 45.1115 30 45.9215C30 46.5515 30.45 47.3015 31.65 47.0615C36.4144 45.4529 40.5544 42.3909 43.4873 38.3062C46.4203 34.2216 47.9986 29.3201 48 24.2915C48 11.0315 37.26 0.291504 24 0.291504Z" fill="white"/>
</g>
<defs>
<clipPath id="clip0_91_198">
<rect width="48" height="48" fill="white" transform="translate(0 0.291504)"/>
</clipPath>
</defs>
</svg>
