<svg width="32" height="51" viewBox="0 0 32 51" fill="none" xmlns="http://www.w3.org/2000/svg">
<path d="M28.2734 48.64C24.8255 51.1028 21.5008 49.6662 20.2694 48.64L14.3176 44.7406L9.0302 40.8412C8.20926 40.4307 5.80032 38.3784 5.13077 35.7104C4.50524 33.2177 5.67806 29.6902 6.77263 28.5272L14.3176 25.4487L14.7281 25.654C27.5346 33.0423 30.9415 36.1208 30.531 39.815V43.304C30.5994 44.6038 30.2437 47.4907 28.2734 48.64Z" fill="url(#paint0_linear_91_14)" stroke="#FFB742"/>
<path d="M0 19.7676L0 30.4397C0.615698 36.6497 8.82501 41.2518 9.03024 40.8413C8.41454 39.8836 6.56745 37.4177 6.15698 34.9607C5.75479 32.5533 7.04632 30.4456 8.00408 29.6247C10.8773 27.7776 18.309 23.2481 24.8332 18.5363C32.2215 13.2002 30.3744 12.4322 30.3744 4.22293C29.5535 -1.31835 23.1913 -0.0869568 21.9599 0.681001C18.1289 3.28062 9.55355 9.52709 5.33605 11.9688C1.43663 14.2264 0.0684109 17.8521 0 19.7676Z" fill="#FFB742"/>
<defs>
<linearGradient id="paint0_linear_91_14" x1="13.9558" y1="25.4487" x2="24.4226" y2="50.0767" gradientUnits="userSpaceOnUse">
<stop stop-color="#BB842C"/>
<stop offset="1" stop-color="#FFB742"/>
</linearGradient>
</defs>
</svg>
