<svg width="91" height="66" viewBox="0 0 91 66" fill="none" xmlns="http://www.w3.org/2000/svg">
<path d="M40.2734 56.64C36.8255 59.1028 33.5008 57.6662 32.2694 56.64L26.3176 52.7406L21.0302 48.8412C20.2093 48.4307 17.8003 46.3784 17.1308 43.7104C16.5052 41.2177 17.6781 37.6902 18.7726 36.5272L26.3176 33.4487L26.7281 33.654C39.5346 41.0423 42.9415 44.1208 42.531 47.815V51.304C42.5994 52.6038 42.2437 55.4907 40.2734 56.64Z" fill="url(#paint0_linear_91_13)" stroke="#FFB742"/>
<path d="M12 27.7676V38.4397C12.6157 44.6497 20.825 49.2518 21.0302 48.8413C20.4145 47.8836 18.5674 45.4177 18.157 42.9607C17.7548 40.5533 19.0463 38.4456 20.0041 37.6247C22.8773 35.7776 30.309 31.2481 36.8332 26.5363C44.2215 21.2002 42.3744 20.4322 42.3744 12.2229C41.5535 6.68165 35.1913 7.91304 33.9599 8.681C30.1289 11.2806 21.5535 17.5271 17.3361 19.9688C13.4366 22.2264 12.0684 25.8521 12 27.7676Z" fill="#FFB742"/>
<path d="M49.8857 9.35997C53.3336 6.89718 56.6584 8.33381 57.8898 9.35997L63.8416 13.2594L69.129 17.1588C69.9499 17.5693 72.3589 19.6216 73.0284 22.2896C73.6539 24.7823 72.4811 28.3098 71.3865 29.4728L63.8416 32.5513L63.4311 32.346C50.6246 24.9577 47.2177 21.8792 47.6282 18.185V14.696C47.5598 13.3962 47.9155 10.5093 49.8857 9.35997Z" fill="url(#paint1_linear_91_13)" stroke="#FFB742"/>
<path d="M78.1592 38.2324V27.5603C77.5435 21.3503 69.3342 16.7482 69.1289 17.1587C69.7446 18.1164 71.5917 20.5823 72.0022 23.0393C72.4044 25.4467 71.1129 27.5544 70.1551 28.3753C67.2818 30.2224 59.8501 34.7519 53.326 39.4637C45.9376 44.7998 47.7847 45.5678 47.7847 53.7771C48.6057 59.3184 54.9679 58.087 56.1993 57.319C60.0303 54.7194 68.6056 48.4729 72.8231 46.0312C76.7226 43.7736 78.0908 40.1479 78.1592 38.2324Z" fill="#FFB742"/>
<defs>
<linearGradient id="paint0_linear_91_13" x1="25.9558" y1="33.4487" x2="36.4226" y2="58.0767" gradientUnits="userSpaceOnUse">
<stop stop-color="#BB842C"/>
<stop offset="1" stop-color="#FFB742"/>
</linearGradient>
<linearGradient id="paint1_linear_91_13" x1="64.2034" y1="32.5513" x2="53.7365" y2="7.92334" gradientUnits="userSpaceOnUse">
<stop stop-color="#BB842C"/>
<stop offset="1" stop-color="#FFB742"/>
</linearGradient>
</defs>
</svg>
