<svg width="48" height="49" viewBox="0 0 48 49" fill="none" xmlns="http://www.w3.org/2000/svg">
<g clip-path="url(#clip0_91_177)">
<path d="M0 0.291504H48V48.2915H0V0.291504Z" fill="#F7DF1E"/>
<path d="M12.6208 40.4039L16.2939 38.1809C17.0027 39.4373 17.6473 40.5004 19.1936 40.5004C20.6758 40.5004 21.6105 39.9207 21.6105 37.6654V22.3283H26.1212V37.7292C26.1212 42.4011 23.3825 44.5277 19.3869 44.5277C15.7785 44.5277 13.6839 42.6589 12.6206 40.4035L12.6208 40.4039ZM28.5712 39.9205L32.244 37.7941C33.2109 39.373 34.4675 40.5329 36.6905 40.5329C38.5597 40.5329 39.7515 39.5984 39.7515 38.3095C39.7515 36.763 38.5271 36.2151 36.465 35.3132L35.3375 34.8295C32.0831 33.4444 29.9244 31.7044 29.9244 28.0313C29.9244 24.6481 32.502 22.0703 36.5297 22.0703C39.3973 22.0703 41.4594 23.0693 42.9414 25.6791L39.4292 27.9347C38.6557 26.5493 37.8183 26.0016 36.5295 26.0016C35.2083 26.0016 34.3706 26.8394 34.3706 27.9347C34.3706 29.2879 35.2084 29.836 37.1415 30.6737L38.2691 31.1569C42.1035 32.8004 44.2622 34.4757 44.2622 38.2452C44.2622 42.3053 41.0724 44.5283 36.7871 44.5283C32.5985 44.5283 29.892 42.5307 28.571 39.9207" fill="black"/>
</g>
<defs>
<clipPath id="clip0_91_177">
<rect width="48" height="48" fill="white" transform="translate(0 0.291504)"/>
</clipPath>
</defs>
</svg>
