<svg width="49" height="49" viewBox="0 0 49 49" fill="none" xmlns="http://www.w3.org/2000/svg">
<g clip-path="url(#clip0_91_192)">
<path d="M23.8901 0.305176C11.6864 0.305176 12.4484 5.59741 12.4484 5.59741L12.462 11.0803H24.1077V12.7264H7.83647C7.83647 12.7264 0.0273438 11.8408 0.0273438 24.1542C0.0273438 36.468 6.84334 36.0313 6.84334 36.0313H10.9111V30.3172C10.9111 30.3172 10.6918 23.5012 17.6183 23.5012H29.1688C29.1688 23.5012 35.6582 23.6061 35.6582 17.2294V6.68597C35.6582 6.68597 36.6438 0.305176 23.8901 0.305176ZM17.4687 3.99233C17.7439 3.99208 18.0164 4.0461 18.2707 4.1513C18.525 4.2565 18.7561 4.41081 18.9506 4.6054C19.1452 4.8 19.2995 5.03105 19.4047 5.28535C19.5099 5.53964 19.564 5.81219 19.5637 6.08739C19.564 6.36258 19.5099 6.63513 19.4047 6.88942C19.2995 7.14372 19.1452 7.37477 18.9506 7.56937C18.7561 7.76396 18.525 7.91827 18.2707 8.02347C18.0164 8.12867 17.7439 8.18269 17.4687 8.18244C17.1935 8.18269 16.9209 8.12867 16.6666 8.02347C16.4123 7.91827 16.1813 7.76396 15.9867 7.56937C15.7921 7.37477 15.6378 7.14372 15.5326 6.88942C15.4274 6.63513 15.3734 6.36258 15.3736 6.08739C15.3734 5.81219 15.4274 5.53964 15.5326 5.28535C15.6378 5.03105 15.7921 4.8 15.9867 4.6054C16.1813 4.41081 16.4123 4.2565 16.6666 4.1513C16.9209 4.0461 17.1935 3.99208 17.4687 3.99233Z" fill="url(#paint0_linear_91_192)"/>
<path d="M24.2366 48.127C36.4403 48.127 35.6783 42.8347 35.6783 42.8347L35.6648 37.352H24.0188V35.7059H40.2901C40.2901 35.7059 48.0992 36.5915 48.0992 24.2777C48.0992 11.9641 41.2832 12.4008 41.2832 12.4008H37.2154V18.1147C37.2154 18.1147 37.4347 24.9307 30.5082 24.9307H18.9577C18.9577 24.9307 12.4683 24.8259 12.4683 31.2027V41.7463C12.4683 41.7463 11.4829 48.127 24.2364 48.127H24.2366ZM30.6581 44.4402C30.3829 44.4404 30.1103 44.3864 29.856 44.2812C29.6017 44.176 29.3707 44.0217 29.1761 43.8271C28.9815 43.6325 28.8272 43.4015 28.722 43.1472C28.6168 42.8929 28.5628 42.6203 28.563 42.3451C28.5627 42.0699 28.6168 41.7973 28.7219 41.543C28.8271 41.2887 28.9814 41.0576 29.176 40.863C29.3706 40.6684 29.6017 40.5141 29.856 40.4089C30.1103 40.3037 30.3829 40.2496 30.6581 40.2499C30.9333 40.2496 31.2058 40.3036 31.4601 40.4088C31.7144 40.514 31.9455 40.6684 32.1401 40.8629C32.3347 41.0575 32.489 41.2886 32.5942 41.5429C32.6994 41.7972 32.7534 42.0697 32.7531 42.3449C32.7534 42.6201 32.6994 42.8927 32.5942 43.147C32.489 43.4013 32.3347 43.6323 32.1401 43.8269C31.9455 44.0215 31.7144 44.1758 31.4601 44.281C31.2058 44.3862 30.9333 44.4402 30.6581 44.44V44.4402Z" fill="url(#paint1_linear_91_192)"/>
</g>
<defs>
<linearGradient id="paint0_linear_91_192" x1="4.64704" y1="4.60647" x2="28.47" y2="28.1918" gradientUnits="userSpaceOnUse">
<stop stop-color="#387EB8"/>
<stop offset="1" stop-color="#366994"/>
</linearGradient>
<linearGradient id="paint1_linear_91_192" x1="19.2695" y1="19.7514" x2="44.8527" y2="43.936" gradientUnits="userSpaceOnUse">
<stop stop-color="#FFE052"/>
<stop offset="1" stop-color="#FFC331"/>
</linearGradient>
<clipPath id="clip0_91_192">
<rect width="48.1882" height="48" fill="white" transform="translate(0 0.291504)"/>
</clipPath>
</defs>
</svg>
