<svg width="48" height="37" viewBox="0 0 48 37" fill="none" xmlns="http://www.w3.org/2000/svg">
<g clip-path="url(#clip0_91_186)">
<path d="M41.3026 21.0127C39.6327 21.0213 38.1813 21.4235 36.9661 22.0181C36.52 21.1349 36.0742 20.3482 35.9956 19.7711C35.908 19.0979 35.8032 18.6869 35.908 17.8826C36.013 17.0782 36.4852 15.9328 36.4763 15.8454C36.4677 15.758 36.3713 15.347 35.4097 15.3384C34.448 15.3296 33.6173 15.5219 33.5212 15.7754C33.425 16.0289 33.2414 16.6061 33.119 17.2004C32.9528 18.0749 31.1956 21.1961 30.1902 22.8311C29.8666 22.193 29.5868 21.6333 29.5255 21.1874C29.4382 20.5143 29.3332 20.1033 29.4382 19.2989C29.5432 18.4946 30.0153 17.3493 30.0065 17.2618C29.9977 17.1744 29.9015 16.7634 28.9398 16.7548C27.9779 16.7459 27.1473 16.9383 27.0513 17.1918C26.9551 17.4455 26.8501 18.0399 26.6491 18.617C26.4479 19.1941 24.1135 24.4051 23.5015 25.7514C23.2542 26.2963 22.9948 26.8356 22.7234 27.3689C22.7234 27.3689 22.7146 27.3952 22.6883 27.4389C22.6031 27.6061 22.5157 27.7723 22.4262 27.9373V27.9459C22.295 28.1821 22.1551 28.4006 22.0852 28.4006C22.0327 28.4006 21.9365 27.7711 22.1026 26.9143C22.4523 25.1045 23.2829 22.2892 23.2743 22.193C23.2743 22.1405 23.4316 21.6509 22.7322 21.3973C22.0501 21.1438 21.8054 21.5634 21.7441 21.5634C21.683 21.5634 21.6391 21.7121 21.6391 21.7121C21.6391 21.7121 22.4 18.5471 20.1878 18.5471C18.8065 18.5471 16.9004 20.0596 15.9562 21.4235C14.8827 22.0076 13.8102 22.5935 12.7387 23.1809C12.223 23.4695 11.6896 23.7581 11.1912 24.029C11.1562 23.9941 11.1213 23.9503 11.0862 23.9154C8.41078 21.0564 3.46228 19.0366 3.67209 15.1985C3.75084 13.7996 4.23159 10.1274 13.1759 5.66845C20.5375 2.03995 26.3956 3.04532 27.4098 5.27488C28.861 8.45751 24.271 14.3679 16.6643 15.2246C13.7617 15.5482 12.2403 14.429 11.8557 14.0094C11.4535 13.5721 11.3922 13.5459 11.2435 13.6334C10.9988 13.7647 11.1562 14.1581 11.2435 14.3853C11.471 14.9797 12.4064 16.0289 13.9889 16.5449C15.3878 16.9994 18.7889 17.2531 22.907 15.6618C27.5146 13.8781 31.1168 8.92082 30.059 4.76788C29.0009 0.553634 22.0064 -0.836491 15.3878 1.51532C11.4535 2.91445 7.18678 5.11757 4.11796 7.98538C0.472027 11.3951 -0.105098 14.3591 0.130965 15.6007C0.979215 20.0071 7.05572 22.8749 9.48628 24.9995C9.36384 25.0694 9.25003 25.1308 9.15403 25.1833C7.93865 25.7864 3.30478 28.2082 2.15071 30.77C0.83934 33.6727 2.36071 35.7537 3.36609 36.0333C6.4874 36.899 9.69609 35.3428 11.4185 32.7721C13.1408 30.2017 12.931 26.8618 12.1355 25.3318C12.1267 25.3143 12.118 25.2967 12.1004 25.2793C12.4152 25.0957 12.7387 24.9033 13.0535 24.7198C13.6321 24.3777 14.218 24.0483 14.8109 23.7316C14.5135 24.5448 14.2949 25.5153 14.1901 26.9143C14.0588 28.5581 14.732 30.6913 15.6151 31.5305C16.0087 31.898 16.472 31.9066 16.7693 31.9066C17.801 31.9066 18.2645 31.0498 18.7803 30.0356C19.4097 28.7941 19.978 27.3515 19.978 27.3515C19.978 27.3515 19.2698 31.2509 21.1934 31.2509C21.8928 31.2509 22.601 30.3416 22.9158 29.8783V29.8869C22.9158 29.8869 22.9332 29.8606 22.9683 29.7995C23.0382 29.6859 23.0819 29.6158 23.0819 29.6158V29.5985C23.3617 29.1088 23.9913 27.9984 24.9267 26.1536C26.1333 23.7755 27.2962 20.8029 27.2962 20.8029C27.2962 20.8029 27.4012 21.5285 27.7595 22.7351C27.9695 23.4433 28.4063 24.2214 28.7562 24.9733C28.4765 25.3668 28.3015 25.5853 28.3015 25.5853L28.3103 25.5941C28.0829 25.8913 27.8382 26.2147 27.5671 26.5297C26.614 27.6661 25.4776 28.9691 25.3201 29.3448C25.1363 29.7907 25.1802 30.1143 25.5301 30.3766C25.7836 30.569 26.2381 30.5951 26.7016 30.569C27.5585 30.5077 28.1617 30.2979 28.4588 30.1668C28.9223 30.0007 29.4644 29.747 29.9714 29.3711C30.907 28.6803 31.4752 27.6924 31.4228 26.3898C31.3966 25.6728 31.1605 24.9558 30.872 24.2825C30.9595 24.1603 31.0381 24.0378 31.1257 23.9154C32.6032 21.7558 33.7486 19.3863 33.7486 19.3863C33.7486 19.3863 33.8536 20.1119 34.2119 21.3187C34.3868 21.9307 34.7453 22.5952 35.06 23.2421C33.6698 24.3701 32.813 25.6814 32.507 26.5383C31.9563 28.1296 32.3845 28.8464 33.1977 29.0126C33.5648 29.0913 34.0895 28.9164 34.4742 28.7503C34.9638 28.5929 35.5409 28.322 36.0918 27.9196C37.0274 27.2291 37.9278 26.2672 37.8753 24.9646C37.849 24.3701 37.6917 23.7841 37.4731 23.2158C38.6534 22.7264 40.1748 22.4553 42.1156 22.6826C46.2775 23.1721 47.0993 25.7688 46.9418 26.8619C46.7845 27.9547 45.9102 28.5493 45.6218 28.7328C45.3331 28.9166 45.2371 28.9777 45.2633 29.1088C45.2982 29.3011 45.4381 29.2925 45.683 29.2574C46.024 29.1963 47.8688 28.3743 47.9474 26.3634C48.0787 23.7929 45.6305 20.9864 41.3026 21.0127ZM9.19772 31.8367C7.81622 33.3404 5.89284 33.9088 5.06221 33.428C4.17046 32.912 4.52015 30.6913 6.21628 29.1001C7.2479 28.1296 8.5769 27.2289 9.46003 26.6782C9.66103 26.5558 9.9584 26.381 10.3169 26.1624C10.378 26.1273 10.4131 26.1099 10.4131 26.1099L10.6229 25.9786C11.2435 28.2519 10.6492 30.2542 9.19772 31.8367ZM19.2524 24.9995C18.7715 26.1712 17.7661 29.1701 17.1541 29.0039C16.6295 28.8641 16.3058 26.5908 17.0491 24.3438C17.425 23.2158 18.2206 21.8694 18.6841 21.3449C19.436 20.5055 20.2666 20.2256 20.4676 20.5668C20.7213 21.0127 19.5496 24.2651 19.2524 24.9995ZM27.5497 28.9689C27.3485 29.0739 27.1563 29.1438 27.0687 29.0913C27.0076 29.0563 27.1563 28.9164 27.1563 28.9164C27.1563 28.9164 28.1967 27.7974 28.6075 27.2902C28.8438 26.993 29.1233 26.6433 29.4207 26.2498V26.3634C29.4207 27.7012 28.1266 28.6018 27.5495 28.9689H27.5497ZM33.9496 27.5088C33.8009 27.4038 33.8272 27.0541 34.3255 25.9612C34.5179 25.5328 34.9724 24.8159 35.7507 24.1252C35.8381 24.4049 35.8994 24.6761 35.8906 24.9296C35.8818 26.6171 34.6754 27.2465 33.9496 27.5088Z" fill="#CD6799"/>
</g>
<defs>
<clipPath id="clip0_91_186">
<rect width="48" height="36" fill="white" transform="translate(0 0.291504)"/>
</clipPath>
</defs>
</svg>
