<svg width="48" height="49" viewBox="0 0 48 49" fill="none" xmlns="http://www.w3.org/2000/svg">
<g clip-path="url(#clip0_91_189)">
<path d="M0 24.2915V48.2915H48V0.291504H0V24.2915Z" fill="#007ACC"/>
<path d="M10.6148 24.4509L10.5996 26.4165H16.8471V44.169H21.2661V26.4165H27.5138V24.489C27.5138 23.4221 27.4909 22.5307 27.4605 22.5079C27.4377 22.4775 23.6355 22.4621 19.0262 22.4698L10.6375 22.4927L10.6148 24.4507V24.4509ZM38.7314 22.4368C39.9503 22.7415 40.8799 23.2824 41.7332 24.1663C42.1752 24.6388 42.8303 25.4996 42.8837 25.7053C42.8987 25.7662 40.8113 27.1682 39.5466 27.9531C39.5009 27.9834 39.3179 27.7854 39.1122 27.4806C38.4951 26.5815 37.8475 26.193 36.8569 26.1244C35.4019 26.0254 34.4646 26.7872 34.4723 28.0596C34.4723 28.4331 34.5255 28.6539 34.678 28.9586C34.998 29.6216 35.5922 30.0178 37.459 30.8254C40.8951 32.3034 42.3655 33.2786 43.2799 34.6654C44.3009 36.2121 44.5294 38.6807 43.836 40.5169C43.0742 42.513 41.1848 43.8692 38.5255 44.3186C37.7027 44.4634 35.7524 44.4405 34.8685 44.2806C32.941 43.9378 31.1123 42.9853 29.9847 41.7358C29.5427 41.2483 28.6817 39.9757 28.7352 39.8844C28.758 39.8539 28.956 39.732 29.1769 39.6024C29.3903 39.4806 30.198 39.0157 30.9599 38.574L32.3389 37.7739L32.6284 38.2007C33.0323 38.8176 33.916 39.6634 34.4494 39.9454C35.9807 40.7529 38.0837 40.6387 39.1199 39.7091C39.5618 39.3054 39.7446 38.8864 39.7446 38.2691C39.7446 37.713 39.676 37.4692 39.3865 37.0502C39.0134 36.5167 38.2514 36.0673 36.0874 35.1302C33.6113 34.0633 32.5446 33.4007 31.5694 32.3492C31.0056 31.7398 30.4722 30.7644 30.2513 29.9492C30.0685 29.271 30.0225 27.5721 30.1675 26.8864C30.678 24.4939 32.4837 22.8253 35.0894 22.3301C35.935 22.1702 37.9007 22.2311 38.7314 22.4368Z" fill="white"/>
</g>
<defs>
<clipPath id="clip0_91_189">
<rect width="48" height="48" fill="white" transform="translate(0 0.291504)"/>
</clipPath>
</defs>
</svg>
