<svg width="20" height="20" viewBox="0 0 20 20" fill="none" xmlns="http://www.w3.org/2000/svg">
<path d="M9.16294 4.51617C9.58094 4.92417 13.6649 9.21118 13.6649 9.21118C13.7708 9.31331 13.855 9.43572 13.9125 9.57111C13.97 9.7065 13.9996 9.85208 13.9996 9.99917C13.9996 10.1463 13.97 10.2919 13.9125 10.4272C13.855 10.5626 13.7708 10.685 13.6649 10.7872C13.6649 10.7872 9.58094 15.0762 9.16294 15.4822C8.74494 15.8902 7.99294 15.9182 7.54794 15.4822C7.10194 15.0482 7.06694 14.4412 7.54794 13.9082L11.2949 10.0002L7.54794 6.09217C7.06694 5.55917 7.10194 4.95117 7.54794 4.51617C7.99294 4.08017 8.74494 4.10717 9.16294 4.51617Z" fill="#B3B3B3"/>
</svg>
