<svg width="48" height="49" viewBox="0 0 48 49" fill="none" xmlns="http://www.w3.org/2000/svg">
<path d="M8.85289 41.093L5.48389 3.2915H42.5159L39.1424 41.087L23.9774 45.2915L8.85289 41.093Z" fill="#1572B6"/>
<path d="M24 42.0783L36.255 38.6808L39.138 6.38281H24V42.0783Z" fill="#33A9DC"/>
<path d="M24 20.0778H30.135L30.558 15.3303H24V10.6938H35.625L35.514 11.9373L34.3755 24.7143H24V20.0778Z" fill="white"/>
<path d="M24.0284 32.1187L24.0074 32.1247L18.8444 30.7297L18.5144 27.0322H13.8599L14.5094 34.3117L24.0059 36.9487L24.0284 36.9427V32.1187Z" fill="#EBEBEB"/>
<path d="M29.7407 24.5181L29.1827 30.7266L24.0122 32.1216V36.9456L33.5162 34.3116L33.5867 33.5286L34.3922 24.5181H29.7407Z" fill="white"/>
<path d="M24.0164 10.6938V15.3303H12.8174L12.7244 14.2878L12.5129 11.9373L12.4019 10.6938H24.0164ZM23.9999 20.0778V24.7143H18.9014L18.8084 23.6718L18.5984 21.3213L18.4874 20.0778H23.9999Z" fill="#EBEBEB"/>
</svg>
