<svg width="48" height="49" viewBox="0 0 48 49" fill="none" xmlns="http://www.w3.org/2000/svg">
<path d="M8.85292 41.093L5.48242 3.2915H42.5174L39.1424 41.087L23.9774 45.2915L8.85292 41.093Z" fill="#E44F26"/>
<path d="M24 42.0783L36.255 38.6808L39.138 6.38281H24V42.0783Z" fill="#F1662A"/>
<path d="M24 20.4021H17.865L17.442 15.6546H24V11.0181H12.375L12.486 12.2631L13.6245 25.0386H24V20.4021V20.4021ZM24 32.4426L23.979 32.4486L18.816 31.0551L18.486 27.3576H13.8315L14.481 34.6356L23.979 37.2726L24 37.2666V32.4426Z" fill="#EBEBEB"/>
<path d="M23.9834 20.4021V25.0386H29.6924L29.1554 31.0521L23.9834 32.4471V37.2711L33.4889 34.6356L33.5579 33.8526L34.6469 21.6471L34.7609 20.4021H23.9834V20.4021ZM23.9834 11.0181V15.6546H35.1824L35.2754 14.6136L35.4869 12.2631L35.5979 11.0181H23.9834V11.0181Z" fill="white"/>
</svg>
